<svg xmlns="http://www.w3.org/2000/svg" viewBox="0 0 649.45 381.41"><defs><style>.cls-1{fill:#fff;}</style></defs><g id="Layer_2" data-name="Layer 2"><g id="Layer_1-2" data-name="Layer 1"><path class="cls-1" d="M264.54,111.61l57.23-61.7c2.93,3.15,5.85,6.11,8.57,9.26,5.07,5.88,10.24,11.71,15,17.86a168.42,168.42,0,0,1,16.76,27.05,189.13,189.13,0,0,1,11,26.27,175.35,175.35,0,0,1,7.57,32.43c.8,6.24,1.38,12.52,1.76,18.79.31,5.32.42,10.68.22,16a183.75,183.75,0,0,1-3.29,28.71,188.1,188.1,0,0,1-7.88,28.61,192.82,192.82,0,0,1-45,70.34,193.78,193.78,0,0,1-36.18,28.33A191.3,191.3,0,0,1,241,374.73,185,185,0,0,1,202.07,381c-6.63.36-13.29.52-19.92.32-5.1-.16-10.18-1-15.27-1.58a183.32,183.32,0,0,1-29.5-6.12c-16.16-4.68-26.44-15.23-29.95-31.55-3.38-15.75,1.36-29.4,13.34-40.23,9.27-8.38,20.35-11.7,32.72-10.17,3.95.49,7.79,1.83,11.67,2.82a108.18,108.18,0,0,0,18.94,2.95,105.16,105.16,0,0,0,39.25-4.65A106.77,106.77,0,0,0,255,276.67a109.11,109.11,0,0,0,23.48-23.57,106.24,106.24,0,0,0,17-35.55,104.33,104.33,0,0,0,3.39-31.7,106.61,106.61,0,0,0-33.3-73.19C265.19,112.35,264.91,112,264.54,111.61Z"/><path class="cls-1" d="M114.64,265.8,56.19,325.18c-1.74-1.7-3.32-3.11-4.75-4.66A190.6,190.6,0,0,1,4.49,230.87a176.48,176.48,0,0,1-4-28.65C.16,194.83-.3,187.37.25,180a207.1,207.1,0,0,1,4.94-33.18,193.63,193.63,0,0,1,17.55-46.22,190.94,190.94,0,0,1,22.34-33,193.64,193.64,0,0,1,24-23.84A191.42,191.42,0,0,1,109.35,18,187,187,0,0,1,156.23,2.73C165.57,1,175-.25,184.54,0c5.69.17,11.4.12,17.09,0a113.86,113.86,0,0,1,23,2.32c6,1.12,12,2.2,17.74,4.24,13.47,4.82,22,14.51,25.85,28.28a39.24,39.24,0,0,1-4.34,32c-8.6,14.15-21.56,20.82-38,20.39a68.11,68.11,0,0,1-11.7-1.84,112.41,112.41,0,0,0-30.46-2,107.49,107.49,0,0,0-28.09,5.82,104.74,104.74,0,0,0-25.8,13.28,107.07,107.07,0,0,0-35,40.94,105.36,105.36,0,0,0-9.51,30.09,107.29,107.29,0,0,0-.84,27.2,105.59,105.59,0,0,0,14.63,44.63,102,102,0,0,0,15,19.55c.35.36.69.73,1,1.1Z"/><path class="cls-1" d="M510.57,148.52c32.36,0,64.72-.11,97.08.06,13.19.07,24.13,5.37,32.51,15.68a41.09,41.09,0,0,1,9.29,26.8c0,16.27-10.89,32.08-26,38a45.47,45.47,0,0,1-16.81,3.15H413.2c-2.7,0-2.71,0-2.71-2.71V150.62c0-2.09,0-2.1,2.08-2.1Z"/></g></g></svg>